PathFileType	4	(x/y/z)	S09_P20_T03
DataRate	CameraRate	NumFrames	NumMarkers	Units	OrigDataRate	OrigDataStartFrame	OrigNumFrames
240	240	10	51	mm	240	103	409
Frame#	Time	Sternum			R.Acromium			L.Acromium			Top.Head			R.ASIS			L.ASIS			R.PSIS			L.PSIS			R.Great.Tro			L.Great.Tro			R.Iliac.Crest			L.Iliac.Crest			V.Sacral			R.Thigh.Upper.Post			R.Thigh.Lower.Ant			R.Thigh.Lower.Post			R.Thigh.Upper.Ant			R.Knee.Lat			R.Knee.Med			R.Shank.Upper.Post			R.Shank.Lower.Ant			R.Shank.Lower.Post			R.Shank.Upper.Ant			R.Ankle.Lat			R.Ankle.Med			R.Heel.Upper			R.Heel.Med			R.Heel.Lat			R.Toe.Lat			R.Toe.Med			R.Toe.Tip			L.Thigh.Upper.Post			L.Thigh.Lower.Ant			L.Thigh.Lower.Post			L.Thigh.Upper.Ant			L.Knee.Lat			L.Knee.Med			L.Shank.Upper.Post			L.Shank.Lower.Ant			L.Shank.Lower.Post			L.Shank.Upper.Ant			L.Ankle.Lat			L.Ankle.Med			L.Heel.Upper			L.Heel.Med			L.Heel.Lat			L.Toe.Lat			L.Toe.Med			L.Toe.Tip			Cervical.Spine			Back			
		X1	Y1	Z1	X2	Y2	Z2	X3	Y3	Z3	X4	Y4	Z4	X5	Y5	Z5	X6	Y6	Z6	X7	Y7	Z7	X8	Y8	Z8	X9	Y9	Z9	X10	Y10	Z10	X11	Y11	Z11	X12	Y12	Z12	X13	Y13	Z13	X14	Y14	Z14	X15	Y15	Z15	X16	Y16	Z16	X17	Y17	Z17	X18	Y18	Z18	X19	Y19	Z19	X20	Y20	Z20	X21	Y21	Z21	X22	Y22	Z22	X23	Y23	Z23	X24	Y24	Z24	X25	Y25	Z25	X26	Y26	Z26	X27	Y27	Z27	X28	Y28	Z28	X29	Y29	Z29	X30	Y30	Z30	X31	Y31	Z31	X32	Y32	Z32	X33	Y33	Z33	X34	Y34	Z34	X35	Y35	Z35	X36	Y36	Z36	X37	Y37	Z37	X38	Y38	Z38	X39	Y39	Z39	X40	Y40	Z40	X41	Y41	Z41	X42	Y42	Z42	X43	Y43	Z43	X44	Y44	Z44	X45	Y45	Z45	X46	Y46	Z46	X47	Y47	Z47	X48	Y48	Z48	X49	Y49	Z49	X50	Y50	Z50	X51	Y51	Z51	

103	0.425	NaN	NaN	NaN	-916.42	1442.4	461.17	-901.49	1445.8	151.86	-892.24	1748.1	311.1	-854.25	1028.1	414.38	-862.27	1027.3	168.99	-1076.7	1046.9	347.05	-1071.9	1054.8	258.25	-925.69	942.2	490.54	-943.6	940.24	105.43	-943.23	1103.2	460.26	-962.29	1125.3	139.55	-1091.3	1014.7	298.68	-843.41	706.51	476.53	-739.34	636.55	441.35	-815.66	618.29	454.69	-772.86	718.53	464.73	-737.06	554.06	436.31	-730.79	542.62	315.26	-781.94	371.23	441.42	-703.69	323.95	443.35	-769.3	296.29	433.72	-721.66	395.45	452.05	-705.69	116.11	426.09	-663.06	139.65	350.2	-753.34	81.298	362.42	-729.05	54.579	336.79	-749.8	51.642	398.03	-605.67	72.225	480.19	-542.46	92.977	389.33	-511.79	118.59	441.01	-1043.2	697.84	167.48	-975.17	590.04	167.9	-1042.3	610.29	187.93	-976.16	676.77	143.38	-1004.9	510.86	183.44	-977.88	525.27	312.77	-1072.6	383.88	180.31	-1022.1	286.9	196.74	-1080.2	309.08	190.27	-1012.8	363.59	185.85	-1088.8	107.71	228.16	-1068.9	106.04	320.74	-1162.4	74.755	285.27	-1149.8	50.506	316.84	-1164.2	46.911	256.74	-993.15	41.567	193.31	-951.34	41.581	300.26	-902.02	55.047	238.87	-990.49	1495.4	314.09	-1050.3	1235.1	292.19
104	0.42917	NaN	NaN	NaN	-911.12	1441.6	461.12	-896.23	1445	151.75	-886.84	1747.4	311.02	-848.47	1027.3	414.27	-857.06	1026.6	168.85	-1071.1	1046.5	347.41	-1066.5	1054.5	258.65	-920.1	941.14	490.34	-938.88	939.82	105.36	-937.23	1102.3	460.3	-957.19	1124.7	139.71	-1085.9	1014.4	299.08	-839.29	704.89	476.16	-735.71	634.47	440.83	-812.14	616.63	454.09	-768.75	716.56	464.39	-733.33	552.64	435.56	-727.43	541.13	314.05	-773.76	369.31	440.82	-694.34	323.98	442.52	-759.22	294.67	433.22	-714.09	395.05	451.16	-690.35	115.62	425.67	-648.88	140.39	349.67	-737.57	79.503	362.37	-712.63	53.499	336.53	-732.92	49.87	397.89	-588.8	74.354	479.1	-526.8	97.043	387.85	-496.46	123.41	439.39	-1039.9	698.09	167.67	-972.51	589.86	167.87	-1039.5	610.51	188.04	-972.97	676.61	143.39	-1002.7	510.82	183.39	-975.3	525.04	312.71	-1071.1	384.13	180.35	-1021	286.89	196.7	-1079.1	309.35	190.38	-1011.3	363.53	185.78	-1088.5	107.91	228.3	-1068.6	106.2	320.88	-1162.3	74.86	285.43	-1149.7	50.573	316.98	-1164.1	47.043	256.89	-993.08	41.59	193.34	-951.24	41.425	300.27	-901.87	54.763	238.87	-985.06	1494.5	313.95	-1045	1234.3	292.24
105	0.43333	NaN	NaN	NaN	-905.8	1440.8	461.08	-890.97	1444.1	151.65	-881.43	1746.6	310.93	-842.67	1026.4	414.17	-851.83	1025.8	168.71	-1065.5	1046	347.77	-1061.1	1054.1	259.05	-914.52	940.02	490.14	-934.16	939.37	105.3	-931.21	1101.4	460.37	-952.05	1124.1	139.89	-1080.5	1014.1	299.49	-835.17	703.25	475.82	-732.07	632.34	440.34	-808.63	614.94	453.5	-764.62	714.55	464.1	-729.6	551.19	434.82	-724.14	539.6	312.82	-765.68	367.5	440.23	-685.17	324.07	441.65	-749.32	293.17	432.73	-706.63	394.69	450.24	-675.41	115.33	425.21	-635.12	141.25	349.06	-722.21	77.924	362.29	-696.66	52.618	336.24	-716.45	48.348	397.74	-572.38	76.685	477.94	-511.69	101.19	386.27	-481.64	128.32	437.63	-1036.5	698.29	167.87	-969.78	589.65	167.84	-1036.7	610.68	188.17	-969.74	676.42	143.41	-1000.4	510.74	183.34	-972.63	524.77	312.65	-1069.4	384.38	180.4	-1019.8	286.86	196.67	-1077.9	309.61	190.52	-1009.8	363.45	185.72	-1088.2	108.12	228.44	-1068.2	106.36	321.01	-1162.2	74.978	285.59	-1149.5	50.653	317.11	-1164.1	47.186	257.03	-993.01	41.612	193.38	-951.13	41.266	300.29	-901.72	54.474	238.87	-979.62	1493.7	313.83	-1039.7	1233.5	292.32
106	0.4375	NaN	NaN	NaN	-900.47	1440	461.05	-885.71	1443.2	151.55	-876.03	1745.9	310.84	-836.86	1025.4	414.09	-846.58	1025.1	168.59	-1059.9	1045.5	348.15	-1055.6	1053.8	259.47	-908.95	938.85	489.94	-929.42	938.88	105.24	-925.18	1100.5	460.46	-946.9	1123.5	140.06	-1075.1	1013.7	299.91	-831.03	701.59	475.5	-728.42	630.19	439.87	-805.11	613.24	452.9	-760.46	712.51	463.85	-725.84	549.75	434.09	-720.92	538.06	311.56	-757.7	365.8	439.65	-676.2	324.21	440.76	-739.61	291.8	432.24	-699.28	394.36	449.3	-660.89	115.23	424.68	-621.83	142.2	348.38	-707.31	76.542	362.17	-681.19	51.912	335.93	-700.45	47.057	397.56	-556.47	79.181	476.71	-497.15	105.36	384.6	-467.36	133.26	435.74	-1033	698.46	168.09	-966.99	589.42	167.81	-1033.7	610.8	188.3	-966.46	676.21	143.42	-997.98	510.64	183.3	-969.86	524.46	312.6	-1067.7	384.61	180.46	-1018.6	286.81	196.64	-1076.6	309.85	190.67	-1008.1	363.35	185.67	-1087.9	108.34	228.58	-1067.9	106.51	321.15	-1162	75.113	285.75	-1149.4	50.747	317.25	-1164	47.345	257.17	-992.93	41.632	193.41	-951.02	41.104	300.3	-901.57	54.179	238.88	-974.17	1492.8	313.72	-1034.3	1232.6	292.42
107	0.44167	NaN	NaN	NaN	-895.12	1439.2	461.04	-880.46	1442.3	151.47	-870.63	1745.1	310.76	-831.04	1024.5	414.02	-841.32	1024.3	168.49	-1054.3	1044.9	348.53	-1050.1	1053.4	259.89	-903.39	937.64	489.75	-924.69	938.37	105.18	-919.13	1099.5	460.57	-941.73	1122.8	140.25	-1069.7	1013.3	300.33	-826.86	699.92	475.21	-724.72	628.03	439.42	-801.55	611.53	452.3	-756.25	710.46	463.66	-722.04	548.33	433.37	-717.74	536.52	310.3	-749.84	364.2	439.08	-667.44	324.38	439.83	-730.12	290.55	431.75	-692.03	394.06	448.33	-646.85	115.27	424.09	-609.02	143.22	347.62	-692.9	75.337	362	-666.25	51.355	335.58	-684.96	45.975	397.35	-541.11	81.799	475.42	-483.21	109.51	382.84	-453.64	138.18	433.73	-1029.5	698.58	168.32	-964.13	589.15	167.78	-1030.7	610.87	188.43	-963.12	675.96	143.44	-995.49	510.51	183.27	-966.99	524.11	312.54	-1065.8	384.83	180.51	-1017.3	286.74	196.62	-1075.3	310.06	190.83	-1006.5	363.22	185.63	-1087.6	108.57	228.73	-1067.5	106.67	321.29	-1161.9	75.269	285.91	-1149.3	50.86	317.38	-1163.9	47.524	257.31	-992.86	41.649	193.45	-950.9	40.94	300.31	-901.42	53.879	238.89	-968.71	1491.8	313.63	-1029	1231.7	292.55
108	0.44583	NaN	NaN	NaN	-889.75	1438.3	461.04	-875.21	1441.3	151.4	-865.24	1744.2	310.68	-825.22	1023.5	413.97	-836.05	1023.4	168.39	-1048.6	1044.3	348.93	-1044.7	1052.9	260.32	-897.82	936.38	489.57	-919.94	937.81	105.13	-913.08	1098.5	460.71	-936.53	1122.1	140.45	-1064.2	1012.9	300.77	-822.64	698.26	474.92	-720.97	625.88	439	-797.93	609.85	451.69	-751.99	708.41	463.5	-718.16	546.93	432.67	-714.57	534.99	309.03	-742.11	362.71	438.53	-658.89	324.57	438.87	-720.85	289.41	431.26	-684.91	393.77	447.34	-633.31	115.44	423.44	-596.72	144.27	346.77	-679.02	74.287	361.77	-651.9	50.922	335.18	-670.04	45.076	397.09	-526.34	84.493	474.07	-469.9	113.59	381	-440.52	143.02	431.62	-1025.9	698.67	168.57	-961.2	588.85	167.75	-1027.6	610.89	188.56	-959.73	675.68	143.46	-992.91	510.34	183.25	-964	523.72	312.49	-1063.9	385.04	180.56	-1016	286.65	196.61	-1074	310.26	191	-1004.7	363.06	185.59	-1087.2	108.82	228.87	-1067.2	106.84	321.43	-1161.8	75.448	286.05	-1149.2	50.995	317.51	-1163.8	47.725	257.44	-992.78	41.664	193.48	-950.79	40.773	300.31	-901.26	53.574	238.9	-963.24	1490.9	313.55	-1023.6	1230.8	292.69
109	0.45	NaN	NaN	NaN	-884.36	1437.4	461.05	-869.96	1440.3	151.34	-859.85	1743.4	310.59	-819.4	1022.4	413.93	-830.78	1022.6	168.31	-1042.9	1043.7	349.33	-1039.2	1052.5	260.76	-892.27	935.11	489.4	-915.18	937.23	105.09	-907.03	1097.4	460.87	-931.31	1121.4	140.66	-1058.8	1012.4	301.22	-818.37	696.62	474.65	-717.14	623.77	438.59	-794.24	608.19	451.08	-747.66	706.39	463.38	-714.2	545.58	431.97	-711.41	533.49	307.77	-734.5	361.31	437.98	-650.55	324.76	437.89	-711.83	288.36	430.77	-677.9	393.49	446.33	-620.32	115.71	422.72	-584.95	145.33	345.84	-665.7	73.37	361.47	-638.16	50.587	334.73	-655.72	44.335	396.78	-512.19	87.213	472.65	-457.24	117.55	379.08	-428.01	147.73	429.41	-1022.3	698.7	168.83	-958.18	588.52	167.73	-1024.4	610.86	188.7	-956.28	675.36	143.49	-990.22	510.14	183.25	-960.9	523.28	312.44	-1061.9	385.24	180.62	-1014.6	286.54	196.61	-1072.6	310.45	191.19	-1002.8	362.88	185.57	-1086.9	109.07	229.01	-1066.8	107	321.57	-1161.6	75.655	286.19	-1149	51.155	317.64	-1163.7	47.951	257.56	-992.7	41.676	193.52	-950.67	40.605	300.32	-901.09	53.264	238.91	-957.77	1489.9	313.49	-1018.3	1229.8	292.87
110	0.45417	NaN	NaN	NaN	-878.96	1436.5	461.08	-864.71	1439.3	151.3	-854.46	1742.5	310.51	-813.58	1021.3	413.91	-825.49	1021.7	168.24	-1037.3	1043	349.75	-1033.7	1052	261.21	-886.7	933.82	489.26	-910.41	936.61	105.05	-900.97	1096.3	461.05	-926.07	1120.6	140.87	-1053.3	1012	301.67	-814.03	695.01	474.37	-713.22	621.72	438.19	-790.45	606.58	450.45	-743.25	704.41	463.29	-710.12	544.27	431.28	-708.2	532.02	306.53	-727.05	359.99	437.45	-642.45	324.93	436.87	-703.06	287.4	430.27	-671	393.22	445.31	-607.91	116.03	421.91	-573.75	146.36	344.82	-652.99	72.562	361.1	-625.07	50.322	334.2	-642.05	43.721	396.41	-498.71	89.905	471.19	-445.24	121.33	377.09	-416.13	152.24	427.11	-1018.5	698.69	169.1	-955.09	588.16	167.7	-1021.1	610.77	188.84	-952.77	675.02	143.52	-987.44	509.91	183.26	-957.68	522.8	312.4	-1059.8	385.42	180.67	-1013.1	286.42	196.61	-1071.1	310.63	191.39	-1000.9	362.67	185.56	-1086.5	109.35	229.15	-1066.5	107.18	321.71	-1161.5	75.894	286.32	-1148.9	51.343	317.75	-1163.6	48.207	257.68	-992.61	41.686	193.56	-950.55	40.436	300.33	-900.92	52.949	238.91	-952.29	1488.9	313.46	-1012.9	1228.8	293.06
111	0.45833	NaN	NaN	NaN	-873.54	1435.6	461.12	-859.46	1438.2	151.26	-849.08	1741.7	310.42	-807.75	1020.3	413.9	-820.2	1020.8	168.19	-1031.6	1042.4	350.17	-1028.2	1051.4	261.66	-881.14	932.53	489.13	-905.64	935.95	105.02	-894.91	1095.3	461.26	-920.81	1119.8	141.09	-1047.9	1011.4	302.14	-809.6	693.44	474.1	-709.18	619.74	437.8	-786.55	605.02	449.81	-738.76	702.5	463.22	-705.92	543.02	430.59	-704.93	530.61	305.32	-719.74	358.77	436.93	-634.58	325.07	435.82	-694.58	286.51	429.75	-664.23	392.92	444.27	-596.1	116.38	421.03	-563.12	147.33	343.72	-640.92	71.84	360.64	-612.66	50.103	333.61	-629.07	43.206	395.95	-485.92	92.515	469.66	-433.91	124.89	375.04	-404.9	156.5	424.75	-1014.8	698.64	169.38	-951.9	587.77	167.69	-1017.7	610.64	188.98	-949.19	674.64	143.57	-984.55	509.64	183.28	-954.33	522.27	312.35	-1057.7	385.61	180.73	-1011.5	286.28	196.63	-1069.5	310.8	191.59	-998.88	362.44	185.57	-1086.1	109.65	229.28	-1066.1	107.36	321.85	-1161.3	76.167	286.44	-1148.8	51.564	317.87	-1163.5	48.495	257.8	-992.53	41.692	193.61	-950.43	40.266	300.33	-900.75	52.628	238.92	-946.81	1487.9	313.45	-1007.5	1227.8	293.28
112	0.4625	NaN	NaN	NaN	-868.1	1434.7	461.18	-854.21	1437.1	151.23	-843.7	1740.8	310.34	-801.93	1019.1	413.9	-814.9	1019.8	168.15	-1025.9	1041.7	350.6	-1022.7	1050.9	262.12	-875.57	931.24	489.04	-900.85	935.27	105	-888.87	1094.2	461.49	-915.53	1119	141.31	-1042.4	1010.9	302.61	-805.09	691.92	473.83	-705.02	617.86	437.41	-782.51	603.52	449.17	-734.17	700.66	463.17	-701.58	541.84	429.91	-701.56	529.25	304.14	-712.6	357.61	436.41	-626.96	325.15	434.74	-686.38	285.67	429.22	-657.58	392.6	443.23	-584.93	116.71	420.07	-553.09	148.21	342.54	-629.51	71.18	360.09	-600.96	49.905	332.93	-616.8	42.76	395.41	-473.85	94.988	468.09	-423.25	128.19	372.92	-394.33	160.45	422.33	-1010.9	698.54	169.67	-948.62	587.35	167.68	-1014.2	610.45	189.13	-945.53	674.23	143.62	-981.55	509.33	183.33	-950.86	521.7	312.32	-1055.4	385.78	180.8	-1009.9	286.12	196.66	-1067.9	310.97	191.81	-996.77	362.19	185.59	-1085.7	109.97	229.42	-1065.7	107.56	321.98	-1161.2	76.48	286.56	-1148.6	51.821	317.97	-1163.4	48.818	257.9	-992.43	41.696	193.65	-950.3	40.097	300.34	-900.57	52.301	238.92	-941.34	1486.9	313.45	-1002	1226.8	293.52
